<svg xmlns="http://www.w3.org/2000/svg" viewBox="0 0 720 440" role="img" aria-labelledby="t d" font-family="'Ubuntu Mono','Menlo','Consolas',monospace">
  <title id="t">Captura: configuración de 2FA con Google Authenticator</title>
  <desc id="d">Terminal Ubuntu GNOME mostrando google-authenticator con QR y códigos de emergencia.</desc>
  <defs>
    <filter id="sh" x="-5%" y="-5%" width="110%" height="115%"><feDropShadow dx="0" dy="3" stdDeviation="4" flood-color="#000" flood-opacity=".22"/></filter>
    <clipPath id="rc"><rect x="20" y="20" width="680" height="400" rx="10"/></clipPath>
  </defs>
  <rect width="720" height="440" fill="#fcefe9"/>
  <g filter="url(#sh)" clip-path="url(#rc)">
    <rect x="20" y="20" width="680" height="400" fill="#300A24"/>
    <rect x="20" y="20" width="680" height="38" fill="#2C001E"/>
    <text x="360" y="44" text-anchor="middle" font-size="12" fill="#e6e6e6">ubuntu@ubuntu: ~</text>
    <g transform="translate(620,29)" fill="none" stroke="#cfcfd6" stroke-width="1.4">
      <circle cx="0" cy="10" r="9" fill="#3c0e2c"/><line x1="-4" y1="10" x2="4" y2="10"/>
      <circle cx="24" cy="10" r="9" fill="#3c0e2c"/><rect x="20" y="6" width="8" height="8"/>
      <circle cx="48" cy="10" r="9" fill="#3c0e2c"/><line x1="44" y1="6" x2="52" y2="14"/><line x1="52" y1="6" x2="44" y2="14"/>
    </g>
    <rect x="20" y="58" width="680" height="28" fill="#3c0e2c"/>
    <rect x="32" y="60" width="280" height="26" rx="3" fill="#300A24"/>
    <text x="44" y="78" font-size="11" fill="#e6e6e6">ubuntu@ubuntu: ~ — google-authenticator</text>
    <text x="298" y="78" font-size="11" fill="#9a8b94">×</text>
  </g>
  <g font-size="13" clip-path="url(#rc)">
    <text x="38" y="112"><tspan fill="#5FD75F" font-weight="700">ubuntu@ubuntu</tspan><tspan fill="#ffffff">:</tspan><tspan fill="#5FB4F3" font-weight="700">~</tspan><tspan fill="#ffffff">$ </tspan><tspan fill="#ffffff">google-authenticator</tspan></text>
    <text x="38" y="134" fill="#e6e6e6">Do you want authentication tokens to be time-based (y/n) <tspan fill="#5FD75F">y</tspan></text>
    <text x="38" y="152" fill="#F7C97E">https://...?secret=K7QXBSGZH4PNV2TZ&amp;issuer=ubuntu</text>
  </g>
  <g transform="translate(290,170)" clip-path="url(#rc)">
    <rect x="-6" y="-6" width="172" height="172" rx="4" fill="#ffffff"/>
    <g fill="#000000">
      <rect x="0" y="0" width="42" height="42"/><rect x="6" y="6" width="30" height="30" fill="#ffffff"/><rect x="12" y="12" width="18" height="18"/>
      <rect x="118" y="0" width="42" height="42"/><rect x="124" y="6" width="30" height="30" fill="#ffffff"/><rect x="130" y="12" width="18" height="18"/>
      <rect x="0" y="118" width="42" height="42"/><rect x="6" y="124" width="30" height="30" fill="#ffffff"/><rect x="12" y="130" width="18" height="18"/>
      <rect x="48" y="6" width="6" height="6"/><rect x="60" y="6" width="6" height="6"/><rect x="72" y="6" width="6" height="6"/><rect x="84" y="6" width="6" height="6"/><rect x="96" y="6" width="6" height="6"/>
      <rect x="48" y="18" width="6" height="6"/><rect x="66" y="18" width="6" height="6"/><rect x="78" y="18" width="6" height="6"/><rect x="102" y="18" width="6" height="6"/>
      <rect x="54" y="30" width="6" height="6"/><rect x="72" y="30" width="6" height="6"/><rect x="90" y="30" width="6" height="6"/><rect x="96" y="30" width="6" height="6"/>
      <rect x="6" y="48" width="6" height="6"/><rect x="18" y="48" width="6" height="6"/><rect x="48" y="48" width="6" height="6"/><rect x="60" y="48" width="6" height="6"/><rect x="84" y="48" width="6" height="6"/><rect x="102" y="48" width="6" height="6"/><rect x="120" y="48" width="6" height="6"/><rect x="138" y="48" width="6" height="6"/><rect x="150" y="48" width="6" height="6"/>
      <rect x="12" y="60" width="6" height="6"/><rect x="30" y="60" width="6" height="6"/><rect x="54" y="60" width="6" height="6"/><rect x="72" y="60" width="6" height="6"/><rect x="90" y="60" width="6" height="6"/><rect x="108" y="60" width="6" height="6"/><rect x="126" y="60" width="6" height="6"/><rect x="144" y="60" width="6" height="6"/>
      <rect x="6" y="72" width="6" height="6"/><rect x="24" y="72" width="6" height="6"/><rect x="48" y="72" width="6" height="6"/><rect x="66" y="72" width="6" height="6"/><rect x="78" y="72" width="6" height="6"/><rect x="96" y="72" width="6" height="6"/><rect x="120" y="72" width="6" height="6"/><rect x="138" y="72" width="6" height="6"/><rect x="156" y="72" width="6" height="6"/>
      <rect x="18" y="84" width="6" height="6"/><rect x="36" y="84" width="6" height="6"/><rect x="54" y="84" width="6" height="6"/><rect x="72" y="84" width="6" height="6"/><rect x="84" y="84" width="6" height="6"/><rect x="108" y="84" width="6" height="6"/><rect x="126" y="84" width="6" height="6"/><rect x="150" y="84" width="6" height="6"/>
      <rect x="6" y="96" width="6" height="6"/><rect x="30" y="96" width="6" height="6"/><rect x="48" y="96" width="6" height="6"/><rect x="60" y="96" width="6" height="6"/><rect x="78" y="96" width="6" height="6"/><rect x="96" y="96" width="6" height="6"/><rect x="114" y="96" width="6" height="6"/><rect x="132" y="96" width="6" height="6"/><rect x="144" y="96" width="6" height="6"/>
      <rect x="12" y="108" width="6" height="6"/><rect x="24" y="108" width="6" height="6"/><rect x="42" y="108" width="6" height="6"/><rect x="66" y="108" width="6" height="6"/><rect x="90" y="108" width="6" height="6"/><rect x="102" y="108" width="6" height="6"/><rect x="120" y="108" width="6" height="6"/><rect x="138" y="108" width="6" height="6"/><rect x="156" y="108" width="6" height="6"/>
      <rect x="48" y="120" width="6" height="6"/><rect x="60" y="120" width="6" height="6"/><rect x="72" y="120" width="6" height="6"/><rect x="90" y="120" width="6" height="6"/><rect x="108" y="120" width="6" height="6"/><rect x="126" y="120" width="6" height="6"/>
      <rect x="54" y="132" width="6" height="6"/><rect x="72" y="132" width="6" height="6"/><rect x="84" y="132" width="6" height="6"/><rect x="102" y="132" width="6" height="6"/><rect x="120" y="132" width="6" height="6"/><rect x="138" y="132" width="6" height="6"/><rect x="156" y="132" width="6" height="6"/>
      <rect x="48" y="144" width="6" height="6"/><rect x="66" y="144" width="6" height="6"/><rect x="78" y="144" width="6" height="6"/><rect x="96" y="144" width="6" height="6"/><rect x="108" y="144" width="6" height="6"/><rect x="132" y="144" width="6" height="6"/><rect x="150" y="144" width="6" height="6"/>
      <rect x="54" y="156" width="6" height="6"/><rect x="72" y="156" width="6" height="6"/><rect x="90" y="156" width="6" height="6"/><rect x="108" y="156" width="6" height="6"/><rect x="126" y="156" width="6" height="6"/><rect x="144" y="156" width="6" height="6"/>
    </g>
  </g>
  <g font-size="13" clip-path="url(#rc)">
    <text x="38" y="360" fill="#F7C97E">Your new secret key is: <tspan fill="#5FD75F">K7QXBSGZH4PNV2TZ</tspan></text>
    <text x="38" y="378" fill="#F7C97E">Your verification code is: <tspan fill="#5FD75F">482 715</tspan></text>
    <text x="38" y="396" fill="#e6e6e6">Your emergency scratch codes are:</text>
    <text x="38" y="412" fill="#e6e6e6">  12805479  58127340  91038264  72056141  35892710</text>
  </g>
</svg>
